# xmcd
# Track frame offsets:
# 150
# 13687
# 24942
# 38296
# 49364
# 60095
# 72343
# 84543
# 95599
# 107209
# 121227
# 131892
# 146020
# 160136
# 174292
# 186402
# 199177
# 211560
# 224322
# 236338
# 248597
# 261531
# 273490
# 286814
#
# Disc length: 3984 seconds
# Revision: 3
# Processed by: cddbd v1.4PL0 Copyright (c) Steve Scherf et al.
# Submitted via: VisiTrax 2.9.7.197 - For more info visit www.synapsa.com
#
DISCID=540f8e18
DTITLE=Milburn, Amos - Chicken Shack Boogie
DYEAR=1998
DGENRE=Blues - R and B
TTITLE0=Down the Road Apiece
TTITLE1=My Baby's Boogying
TTITLE2=After Midnite
TTITLE3=Amos' Blues
TTITLE4=Amos' Boogie
TTITLE5=Operation Blues
TTITLE6=Everything I Do is Wrong
TTITLE7=Money Hustlin' Woman
TTITLE8=Blues at Sundown
TTITLE9=Sad and Blue
TTITLE10=Aladdin Boogie
TTITLE11=Real Gone
TTITLE12=Bye, Bye Boogie
TTITLE13=Train Time Blues
TTITLE14=Pot Luck Boogie
TTITLE15=Chicken Shack Boogie
TTITLE16=Hard Driving Blues
TTITLE17=Hold Me, Baby
TTITLE18=I Love Her
TTITLE19=Pool-Playing Blues
TTITLE20=Anybody's Blues
TTITLE21=It Took a Long Long Time
TTITLE22=Emptry Arms Blues
TTITLE23=Wolf on the River
EXTD=Blue Boar Records, CP 018 - CDBB 1013
EXTT0=
EXTT1=
EXTT2=
EXTT3=
EXTT4=
EXTT5=
EXTT6=
EXTT7=
EXTT8=
EXTT9=
EXTT10=
EXTT11=
EXTT12=
EXTT13=
EXTT14=
EXTT15=
EXTT16=
EXTT17=
EXTT18=
EXTT19=
EXTT20=
EXTT21=
EXTT22=
EXTT23=
PLAYORDER=
